<?xml version="1.0" encoding="UTF-8"?>
<svg version="1.1" xmlns="http://www.w3.org/2000/svg" width="524" height="387">
<path d="M0 0 C6.6 0 13.2 0 20 0 C20.00879936 3.26530357 20.00879936 3.26530357 20.01777649 6.59657288 C20.07442819 27.09405908 20.1475001 47.5914397 20.23571491 68.08881474 C20.28067367 78.62715212 20.3200882 89.16545571 20.34643555 99.70385742 C20.36941492 108.88950667 20.40281236 118.07504896 20.44870156 127.26061338 C20.47263451 132.12395942 20.49136285 136.98719952 20.49761391 141.8506031 C20.50366439 146.42985708 20.52366305 151.00884001 20.55427551 155.58799362 C20.56305629 157.26693146 20.56677823 158.94590471 20.56500816 160.62486458 C20.56335148 162.92173543 20.58008733 165.21778383 20.60127258 167.51454163 C20.60588155 168.79859925 20.61049051 170.08265688 20.61523914 171.40562534 C21.06800928 175.63533186 22.02269352 178.24518977 24 182 C26.88599388 184.35618542 26.88599388 184.35618542 30.5 183.8125 C34.50092351 182.92333571 34.50092351 182.92333571 37 180 C38.24612502 176.31380916 38.13895263 172.70150155 38.15821838 168.83734131 C38.16315636 168.11521839 38.16809434 167.39309548 38.17318195 166.64909005 C38.18854062 164.22927848 38.19691315 161.8094934 38.20532227 159.38964844 C38.21490207 157.65508796 38.22491221 155.92052982 38.23532104 154.18597412 C38.26236505 149.47563231 38.28337737 144.76528048 38.30332303 140.05490398 C38.32518566 135.13279583 38.352573 130.21071852 38.37937927 125.28863525 C38.42930239 115.96730275 38.47424265 106.64595312 38.51740164 97.32458711 C38.56677725 86.71282582 38.62169419 76.10109549 38.67708123 65.48936415 C38.79089543 43.65960477 38.89753916 21.82981536 39 0 C45.27 0 51.54 0 58 0 C58.06948677 23.57439776 58.12300432 47.14877079 58.15543652 70.72325039 C58.1708965 81.66962104 58.19196948 92.61592684 58.22631836 103.56225586 C58.25624723 113.10457292 58.27558131 122.64684301 58.28226548 132.18920571 C58.28617182 137.24045348 58.29533426 142.29156688 58.31719017 147.34277153 C58.33761038 152.10088694 58.34382261 156.85881309 58.33932304 161.61696815 C58.34014577 163.35959783 58.34607836 165.10223408 58.35761642 166.84482574 C58.43825445 179.65610597 57.29977908 190.5546998 49 201 C42.53675648 206.15669537 33.38707501 207.34442199 25.375 206.8125 C16.53737387 205.72805222 9.95899938 202.98540663 4.3125 195.875 C-0.41780531 185.51337885 -0.41474004 175.19569916 -0.34057617 164.04418945 C-0.33972859 162.24948643 -0.34020759 160.45478237 -0.34190369 158.66007996 C-0.34275996 153.817818 -0.32519404 148.97578166 -0.30418181 144.13357186 C-0.28535342 139.06205676 -0.28365973 133.99053576 -0.28010559 128.91899109 C-0.27080317 119.32866392 -0.2462139 109.73844005 -0.21605712 100.14815825 C-0.18245684 89.22430454 -0.16601298 78.30044575 -0.15097082 67.37655318 C-0.11966267 44.91764302 -0.06632892 22.45883168 0 0 Z " fill="#FFFFFF" transform="translate(453,34)"/>
<path d="M0 0 C17.82 0 35.64 0 54 0 C54 7.59 54 15.18 54 23 C43.11 23 32.22 23 21 23 C21 57.32 21 91.64 21 127 C29.91 127 38.82 127 48 127 C48 133.93 48 140.86 48 148 C39.09 148 30.18 148 21 148 C21 159.55 21 171.1 21 183 C31.89 183 42.78 183 54 183 C54 190.26 54 197.52 54 205 C36.18 205 18.36 205 0 205 C0 137.35 0 69.7 0 0 Z " fill="#FFFFFF" transform="translate(239,34)"/>
<path d="M0 0 C17.49 0 34.98 0 53 0 C53 7.59 53 15.18 53 23 C42.11 23 31.22 23 20 23 C20 57.32 20 91.64 20 127 C28.91 127 37.82 127 47 127 C47 133.93 47 140.86 47 148 C38.09 148 29.18 148 20 148 C20 159.55 20 171.1 20 183 C30.89 183 41.78 183 53 183 C53 190.26 53 197.52 53 205 C35.51 205 18.02 205 0 205 C0 137.35 0 69.7 0 0 Z " fill="#FFFFFF" transform="translate(313,34)"/>
<path d="M0 0 C0.89460938 -0.00128906 1.78921875 -0.00257812 2.7109375 -0.00390625 C3.65195312 -0.00003906 4.59296875 0.00382812 5.5625 0.0078125 C6.97402344 0.00201172 6.97402344 0.00201172 8.4140625 -0.00390625 C9.75597656 -0.00197266 9.75597656 -0.00197266 11.125 0 C11.95128906 0.00112793 12.77757812 0.00225586 13.62890625 0.00341797 C15.5625 0.1328125 15.5625 0.1328125 16.5625 1.1328125 C16.66013101 3.48568543 16.69247445 5.80915936 16.68275452 8.16249084 C16.68360894 8.9065518 16.68446337 9.65061275 16.68534368 10.41722101 C16.68700071 12.9292943 16.6814735 15.44130192 16.67602539 17.95336914 C16.67574354 19.74659727 16.67590121 21.53982552 16.6764679 23.33305359 C16.67675596 28.21714615 16.67085786 33.10121437 16.66389394 37.98530126 C16.65766181 43.0835783 16.65705671 48.18185584 16.65586853 53.28013611 C16.6527548 62.94158409 16.64454084 72.60302082 16.63451904 82.26446384 C16.62335921 93.26064873 16.61784778 104.25683413 16.61282361 115.25302327 C16.60235826 137.87962614 16.58455765 160.50621822 16.5625 183.1328125 C26.7925 183.1328125 37.0225 183.1328125 47.5625 183.1328125 C47.5625 190.3928125 47.5625 197.6528125 47.5625 205.1328125 C30.0725 205.1328125 12.5825 205.1328125 -5.4375 205.1328125 C-5.46004422 178.55178591 -5.47847754 151.97076702 -5.48931217 125.38973331 C-5.49447584 113.0486371 -5.50151987 100.70754722 -5.51293945 88.36645508 C-5.52288414 77.61417796 -5.52935291 66.86190544 -5.53158849 56.10962385 C-5.53289597 50.41258039 -5.53598413 44.71555008 -5.54323006 39.01851082 C-5.54998688 33.6629405 -5.55211765 28.30738883 -5.55060768 22.95181465 C-5.55088416 20.98007608 -5.55289128 19.00833692 -5.55670547 17.03660202 C-5.56163745 14.35694328 -5.56050013 11.67735611 -5.55775452 8.99769592 C-5.56066736 8.20685531 -5.5635802 7.4160147 -5.56658131 6.60120922 C-5.54815838 0.00757354 -5.54815838 0.00757354 0 0 Z " fill="#FFFFFF" transform="translate(390.4375,33.8671875)"/>
<path d="M0 0 C1.98 0 3.96 0 6 0 C5.55012348 7.64790079 2.87633706 13.91978569 0 21 C5.28 21 10.56 21 16 21 C16.495 22.485 16.495 22.485 17 24 C16.34 24.99 15.68 25.98 15 27 C13.12060547 27.34057617 13.12060547 27.34057617 10.8671875 27.29296875 C10.06152344 27.28330078 9.25585938 27.27363281 8.42578125 27.26367188 C7.58402344 27.23853516 6.74226563 27.21339844 5.875 27.1875 C5.02550781 27.17396484 4.17601563 27.16042969 3.30078125 27.14648438 C1.20025163 27.11108219 -0.89995293 27.05727401 -3 27 C-3.33 29.97 -3.66 32.94 -4 36 C9.86 36.495 9.86 36.495 24 37 C24 38.65 24 40.3 24 42 C13.77 42 3.54 42 -7 42 C-7.33 43.98 -7.66 45.96 -8 48 C-10.97 56.25 -13.94 64.5 -17 73 C2.8 73 22.6 73 43 73 C39.04 62.11 39.04 62.11 35 51 C34.505 46.545 34.505 46.545 34 42 C33.34 42 32.68 42 32 42 C31.70867187 41.04222656 31.41734375 40.08445313 31.1171875 39.09765625 C30.70382394 37.7523892 30.28969892 36.407356 29.875 35.0625 C29.65561768 34.34827881 29.43623535 33.63405762 29.21020508 32.89819336 C28.01104167 29.04921832 26.74555186 25.24469375 25.33203125 21.46875 C25.0582666 20.73132568 24.78450195 19.99390137 24.50244141 19.23413086 C23.97422454 17.82655477 23.43421988 16.42332394 22.88037109 15.02563477 C20.94773879 9.85270268 20.76806603 5.51787103 21 0 C23.37109375 0.20703125 23.37109375 0.20703125 26 1 C29.1115494 6.11964198 30.21572865 12.75149166 31.80078125 18.49609375 C33.9135319 25.91735645 36.46435682 33.13520833 39.125 40.375 C41.75420928 47.54208652 44.25266658 54.5676804 46 62 C47.05188077 65.1073227 48.16391176 68.18565327 49.29296875 71.265625 C50.01567498 74.06062149 50.05052422 75.35243606 49 78 C47.13201538 79.86798462 43.98268773 79.12779067 41.49243164 79.12939453 C40.81274826 79.13114685 40.13306488 79.13289917 39.43278503 79.13470459 C37.17521649 79.13912303 34.91772565 79.13618484 32.66015625 79.1328125 C31.09695928 79.13348562 29.53376241 79.13445571 27.9705658 79.13571167 C24.68943285 79.13718869 21.40832707 79.13503423 18.12719727 79.13037109 C13.91579299 79.1246785 9.7044525 79.1279498 5.49305058 79.13394356 C2.26321429 79.13755306 -0.96660682 79.13640871 -4.19644356 79.13381577 C-5.74942596 79.13314733 -7.30240974 79.13397202 -8.85539055 79.13629532 C-11.02464331 79.13882769 -13.19379211 79.13497277 -15.36303711 79.12939453 C-16.59912216 79.12859894 -17.83520721 79.12780334 -19.10874939 79.12698364 C-22 79 -22 79 -24 78 C-23.42305688 73.03575314 -22.34311762 68.64806532 -20.6875 63.9375 C-19.02656452 59.1360158 -17.50917646 54.34658399 -16.1875 49.4375 C-14.44966856 43.18130681 -12.26430455 37.14610722 -10 31.0625 C-7.16492085 23.44505402 -4.70737918 15.89346287 -2.7890625 7.99609375 C-2.05524398 5.20976303 -1.13310662 2.64555764 0 0 Z " fill="#FFFFFF" transform="translate(65,163)"/>
<path d="M0 0 C7.54391591 -0.05086019 15.08778731 -0.08580087 22.63183594 -0.10986328 C25.19630587 -0.11989845 27.76076443 -0.13352955 30.32519531 -0.15087891 C34.01890884 -0.17523621 37.71247059 -0.18650824 41.40625 -0.1953125 C43.1160907 -0.21079636 43.1160907 -0.21079636 44.86047363 -0.22659302 C50.95359659 -0.22744487 56.16845543 0.21478191 62 2 C66.1234464 3.16532181 68.4594755 2.93927008 72.39599609 1.5300293 C78.56172927 -0.38099762 84.37807036 -0.38084889 90.7890625 -0.29296875 C91.97349945 -0.28872391 93.1579364 -0.28447906 94.37826538 -0.28010559 C98.12741713 -0.26343533 101.87601321 -0.22580413 105.625 -0.1875 C108.18098177 -0.17243814 110.73697204 -0.15875237 113.29296875 -0.14648438 C119.5288325 -0.11357002 125.76437653 -0.06348779 132 0 C132.33 1.65 132.66 3.3 133 5 C129.8257669 6.86534147 127.53007697 7.24163687 123.86767578 7.21118164 C122.84626495 7.20780289 121.82485413 7.20442413 120.77249146 7.20094299 C119.12553787 7.18075356 119.12553787 7.18075356 117.4453125 7.16015625 C116.311008 7.15495468 115.17670349 7.14975311 114.00802612 7.14439392 C110.38022081 7.12657587 106.75269731 7.09541791 103.125 7.0625 C99.50447087 7.03484218 95.88398348 7.0101165 92.26339722 6.99131775 C90.010695 6.97910812 87.75801384 6.96155142 85.50540161 6.93800354 C80.55271833 6.90653028 75.86573824 6.92777243 71 8 C71.99 9.98 71.99 9.98 73 12 C73.74866837 12.02283554 74.49733673 12.04567108 75.26869202 12.06919861 C82.34510425 12.28573484 89.42138724 12.50603225 96.49755192 12.73049068 C100.13494529 12.84573902 103.77237129 12.95956364 107.40991211 13.07006836 C110.92430699 13.17688557 114.43856296 13.28752909 117.95275688 13.40075874 C119.93725953 13.46372072 121.92188471 13.52278175 123.9065094 13.58177185 C129.67470938 13.77061818 135.31301053 13.988568 141 15 C141 16.32 141 17.64 141 19 C117.24 19 93.48 19 69 19 C68.01 16.03 68.01 16.03 67 13 C66.34 13 65.68 13 65 13 C64.34 14.98 63.68 16.96 63 19 C41.22 19 19.44 19 -3 19 C-2.67 17.35 -2.34 15.7 -2 14 C18.67727098 13.26117515 39.30800377 12.84644597 60 13 C60.33 11.35 60.66 9.7 61 8 C55.14988571 6.71983668 49.38550142 6.90898164 43.43359375 6.97265625 C41.1516942 6.98529747 38.86979308 6.99765879 36.58789062 7.00976562 C33.00426317 7.03461946 29.42071758 7.06265591 25.8371582 7.09594727 C22.36929805 7.12613564 18.9015433 7.14391525 15.43359375 7.16015625 C13.82719276 7.18034569 13.82719276 7.18034569 12.18833923 7.20094299 C11.18702469 7.20432175 10.18571014 7.2077005 9.15405273 7.21118164 C7.83883888 7.22236778 7.83883888 7.22236778 6.49705505 7.23377991 C3.69699055 6.97163157 1.55079765 6.15577517 -1 5 C-0.67 3.35 -0.34 1.7 0 0 Z " fill="#FFFFFF" transform="translate(11,133)"/>
<path d="M0 0 C1.98 0 3.96 0 6 0 C4.125 5.75 4.125 5.75 3 8 C4.670625 8.37125 4.670625 8.37125 6.375 8.75 C10 10 10 10 11.4375 11.625 C12.26864866 15.13429436 12.12011061 18.39668181 12 22 C13.65 22 15.3 22 17 22 C17 14.74 17 7.48 17 0 C18.65 0 20.3 0 22 0 C22 7.26 22 14.52 22 22 C22.99 22 23.98 22 25 22 C25 15.73 25 9.46 25 3 C26.65 3 28.3 3 30 3 C30 9.27 30 15.54 30 22 C30.66 22 31.32 22 32 22 C32 14.74 32 7.48 32 0 C33.65 0 35.3 0 37 0 C37 8.91 37 17.82 37 27 C35.35 27.33 33.7 27.66 32 28 C32 29.98 32 31.96 32 34 C29.03 34.66 26.06 35.32 23 36 C23 33.36 23 30.72 23 28 C19.82709287 26.41354643 16.41174616 26.87921787 12.9296875 26.90234375 C12.13345978 26.9037587 11.33723206 26.90517365 10.51687622 26.90663147 C7.9695462 26.91223655 5.42230353 26.92478986 2.875 26.9375 C1.14974085 26.94251435 -0.57551967 26.94707737 -2.30078125 26.95117188 C-6.53388791 26.96220763 -10.76692914 26.97947564 -15 27 C-15.12375 28.134375 -15.2475 29.26875 -15.375 30.4375 C-15.684375 32.2009375 -15.684375 32.2009375 -16 34 C-18.95664519 35.4783226 -21.74229737 35.06032783 -25 35 C-25 34.34 -25 33.68 -25 33 C-25.99 33.66 -26.98 34.32 -28 35 C-33.34545455 35.32727273 -33.34545455 35.32727273 -36 34 C-36 32.68 -36 31.36 -36 30 C-33.69 30 -31.38 30 -29 30 C-29 29.01 -29 28.02 -29 27 C-30.11375 26.896875 -31.2275 26.79375 -32.375 26.6875 C-34.169375 26.3471875 -34.169375 26.3471875 -36 26 C-38.35490728 22.46763908 -38.32743705 20.75279632 -38.375 16.5625 C-38.40335938 15.42941406 -38.43171875 14.29632813 -38.4609375 13.12890625 C-38 10 -38 10 -36.234375 7.609375 C-32.66221577 5.03642115 -30.31870249 5.65171754 -26 6 C-25.34 6.33 -24.68 6.66 -24 7 C-23.97088679 10.0833134 -23.95316318 13.16659125 -23.9375 16.25 C-23.92912109 17.12269531 -23.92074219 17.99539063 -23.91210938 18.89453125 C-23.90888672 19.73886719 -23.90566406 20.58320313 -23.90234375 21.453125 C-23.89710693 22.22817383 -23.89187012 23.00322266 -23.88647461 23.80175781 C-23.99963002 25.99283598 -24.39447552 27.89637861 -25 30 C-23.35 30 -21.7 30 -20 30 C-19.67 22.41 -19.34 14.82 -19 7 C-17.68 7 -16.36 7 -15 7 C-15 11.95 -15 16.9 -15 22 C-13.68 22 -12.36 22 -11 22 C-11 17.05 -11 12.1 -11 7 C-11.66 7 -12.32 7 -13 7 C-13 5.02 -13 3.04 -13 1 C-10.36 1 -7.72 1 -5 1 C-5.33 7.93 -5.66 14.86 -6 22 C-1.38 22 3.24 22 8 22 C7.34 19.69 6.68 17.38 6 15 C3.03 14.67 0.06 14.34 -3 14 C-4.07010304 11.23556715 -4.16283213 9.46148633 -3.17578125 6.6640625 C-2.16488321 4.41525773 -1.11596524 2.19840363 0 0 Z M-32 11 C-33.14352916 13.28705831 -33.10334439 14.59264762 -33.0625 17.125 C-33.041875 18.40375 -33.02125 19.6825 -33 21 C-30.525 21.495 -30.525 21.495 -28 22 C-28 18.37 -28 14.74 -28 11 C-29.32 11 -30.64 11 -32 11 Z " fill="#FFFFFF" transform="translate(196,276)"/>
<path d="M0 0 C1.65 0 3.3 0 5 0 C5 8.91 5 17.82 5 27 C-11.5 27 -28 27 -45 27 C-45 28.65 -45 30.3 -45 32 C-47.37869491 34.65315971 -48.67124653 34.98103345 -52.25 35.1875 C-53.61125 35.0946875 -53.61125 35.0946875 -55 35 C-55 34.01 -55 33.02 -55 32 C-57.31 32 -59.62 32 -62 32 C-62 30.35 -62 28.7 -62 27 C-63.21236328 27.05220703 -63.21236328 27.05220703 -64.44921875 27.10546875 C-65.51785156 27.13253906 -66.58648437 27.15960938 -67.6875 27.1875 C-69.27111328 27.23970703 -69.27111328 27.23970703 -70.88671875 27.29296875 C-74.53528119 26.9496285 -76.28995913 26.4916493 -79 24 C-79.43933956 21.24414278 -79.56925938 19.16827777 -79.4375 16.4375 C-79.42879883 15.40979492 -79.42879883 15.40979492 -79.41992188 14.36132812 C-79.29564103 9.29564103 -79.29564103 9.29564103 -77 7 C-76.60235737 5.01178687 -76.26224651 3.01055661 -76 1 C-73.03 1 -70.06 1 -67 1 C-67 2.98 -67 4.96 -67 7 C-66.34 7 -65.68 7 -65 7 C-65 11.95 -65 16.9 -65 22 C-63.35 22 -61.7 22 -60 22 C-60 17.05 -60 12.1 -60 7 C-58.35 7 -56.7 7 -55 7 C-54.67 14.59 -54.34 22.18 -54 30 C-52.68 30 -51.36 30 -50 30 C-50 22.41 -50 14.82 -50 7 C-48.35 7 -46.7 7 -45 7 C-45 11.95 -45 16.9 -45 22 C-43.68 22 -42.36 22 -41 22 C-41 17.05 -41 12.1 -41 7 C-27.39553571 5.48839286 -27.39553571 5.48839286 -23 9 C-21.99503148 12.01490557 -21.89664697 14.04181692 -21.9375 17.1875 C-21.94652344 18.08855469 -21.95554687 18.98960937 -21.96484375 19.91796875 C-21.97644531 20.60503906 -21.98804688 21.29210937 -22 22 C-20.68 22 -19.36 22 -18 22 C-18.01160156 21.16855469 -18.02320313 20.33710938 -18.03515625 19.48046875 C-18.04417969 18.39378906 -18.05320312 17.30710937 -18.0625 16.1875 C-18.07410156 15.10855469 -18.08570313 14.02960938 -18.09765625 12.91796875 C-18 10 -18 10 -17 7 C-9.94903339 5.44639719 -9.94903339 5.44639719 -6 7.75 C-3.11362463 12.44035998 -3.57681634 16.6302695 -4 22 C-2.68 22 -1.36 22 0 22 C0 14.74 0 7.48 0 0 Z M-74 11 C-75.49297212 13.98594424 -75.11755228 16.70853624 -75 20 C-74.67 20.66 -74.34 21.32 -74 22 C-72.35 22 -70.7 22 -69 22 C-69 18.37 -69 14.74 -69 11 C-70.65 11 -72.3 11 -74 11 Z M-32 11 C-34.70272533 13.87164566 -35.94791837 15.30991841 -36.25 19.3125 C-36.1675 20.199375 -36.085 21.08625 -36 22 C-33.03 22 -30.06 22 -27 22 C-27 18.7 -27 15.4 -27 12 C-28.65 11.67 -30.3 11.34 -32 11 Z M-13 11 C-14.62651522 14.25303044 -14.11453156 17.39225602 -14 21 C-12.93354885 22.29633621 -12.93354885 22.29633621 -10.4375 22.0625 C-9.633125 22.041875 -8.82875 22.02125 -8 22 C-7.95875 20.741875 -7.9175 19.48375 -7.875 18.1875 C-7.84019531 17.12595703 -7.84019531 17.12595703 -7.8046875 16.04296875 C-7.86745538 13.68640281 -7.86745538 13.68640281 -10 11 C-10.99 11 -11.98 11 -13 11 Z " fill="#FFFFFF" transform="translate(402,276)"/>
<path d="M0 0 C1.9375 0.5625 1.9375 0.5625 4 2 C5.21348249 7.54734854 4.95750343 12.8030258 4.5625 18.4375 C4.51029297 19.26443359 4.45808594 20.09136719 4.40429688 20.94335938 C4.27590237 22.96265478 4.13884576 24.98139629 4 27 C4.99 27 5.98 27 7 27 C7 19.74 7 12.48 7 5 C8.32 5 9.64 5 11 5 C11 13.91 11 22.82 11 32 C-4.18 32 -19.36 32 -35 32 C-35 33.65 -35 35.3 -35 37 C-37.31 37 -39.62 37 -42 37 C-42 35.35 -42 33.7 -42 32 C-42.89203125 32.02320313 -43.7840625 32.04640625 -44.703125 32.0703125 C-45.87359375 32.08835937 -47.0440625 32.10640625 -48.25 32.125 C-49.41015625 32.14820313 -50.5703125 32.17140625 -51.765625 32.1953125 C-54.85701916 32.00863411 -56.48450767 31.74604762 -59 30 C-61.51872919 25.0824811 -61.24283503 20.26200314 -60 15 C-59.34 14.01 -58.68 13.02 -58 12 C-57.34 12 -56.68 12 -56 12 C-56 10.02 -56 8.04 -56 6 C-53.36 6 -50.72 6 -48 6 C-48 7.98 -48 9.96 -48 12 C-47.01 12 -46.02 12 -45 12 C-45 16.95 -45 21.9 -45 27 C-43.68 27 -42.36 27 -41 27 C-41 22.05 -41 17.1 -41 12 C-39.68 12 -38.36 12 -37 12 C-37 16.95 -37 21.9 -37 27 C-35.35 27 -33.7 27 -32 27 C-32 19.74 -32 12.48 -32 5 C-30.68 5 -29.36 5 -28 5 C-28 12.26 -28 19.52 -28 27 C-26.35 27 -24.7 27 -23 27 C-23.0825 26.0925 -23.165 25.185 -23.25 24.25 C-23 21 -23 21 -21.375 18.5625 C-19 17 -19 17 -15.875 17.0625 C-13 18 -13 18 -11 21 C-10.875 24.1875 -10.875 24.1875 -11 27 C-10.34 27 -9.68 27 -9 27 C-9.25554054 25.53890937 -9.53000372 24.08111904 -9.8125 22.625 C-9.96332031 21.81289063 -10.11414063 21.00078125 -10.26953125 20.1640625 C-10.87544942 17.64179359 -10.87544942 17.64179359 -14 16 C-16.05709596 15.75944532 -16.05709596 15.75944532 -18.1875 15.875 C-19.445625 15.91625 -20.70375 15.9575 -22 16 C-22.495 14.02 -22.495 14.02 -23 12 C-20.43435275 10.71717637 -18.48966931 10.79608047 -15.625 10.75 C-14.66851562 10.72421875 -13.71203125 10.6984375 -12.7265625 10.671875 C-9.54355211 11.05493069 -8.2401399 11.72917325 -6 14 C-4.8581177 16.89356563 -4.89211115 19.66355816 -4.9375 22.75 C-4.94652344 23.54921875 -4.95554688 24.3484375 -4.96484375 25.171875 C-4.97644531 25.77515625 -4.98804688 26.3784375 -5 27 C-3.68 27 -2.36 27 -1 27 C-1 21.72 -1 16.44 -1 11 C-1.99 11 -2.98 11 -4 11 C-4.97353743 7.97121688 -5.24612776 5.97153543 -4 3 C-1.9375 1.25 -1.9375 1.25 0 0 Z M-54 16 C-55.89885096 17.89885096 -55.12367506 20.57247903 -55.1328125 23.08984375 C-55.11686861 25.08634367 -55.11686861 25.08634367 -54 27 C-52.68 27 -51.36 27 -50 27 C-50 23.37 -50 19.74 -50 16 C-51.32 16 -52.64 16 -54 16 Z M-18 23 C-18 24.32 -18 25.64 -18 27 C-17.01 27 -16.02 27 -15 27 C-15.33 25.68 -15.66 24.36 -16 23 C-16.66 23 -17.32 23 -18 23 Z " fill="#FFFFFF" transform="translate(101,271)"/>
<path d="M0 0 C1.65 0 3.3 0 5 0 C5 7.26 5 14.52 5 22 C6.32 21.67 7.64 21.34 9 21 C8.67 20.13375 8.34 19.2675 8 18.375 C7.00069553 15.0023474 6.68266519 12.49068293 7 9 C9.87592677 6.12407323 13.08928908 6.03621029 17 6 C20.5 6.9375 20.5 6.9375 23 8 C23.05447047 9.41623216 23.09300508 10.83308191 23.125 12.25 C23.14820313 13.03890625 23.17140625 13.8278125 23.1953125 14.640625 C22.9828378 17.20731941 22.28654105 18.7916067 21 21 C22.65 21.33 24.3 21.66 26 22 C26 17.05 26 12.1 26 7 C25.34 7 24.68 7 24 7 C24 5.02 24 3.04 24 1 C26.64 1 29.28 1 32 1 C31.67 7.93 31.34 14.86 31 22 C31.99 22 32.98 22 34 22 C34 14.74 34 7.48 34 0 C35.65 0 37.3 0 39 0 C39 7.26 39 14.52 39 22 C40.65 22 42.3 22 44 22 C44 14.74 44 7.48 44 0 C45.32 0 46.64 0 48 0 C48 8.91 48 17.82 48 27 C27.21 27 6.42 27 -15 27 C-15 30.63 -15 34.26 -15 38 C-16.32 38 -17.64 38 -19 38 C-19.99293628 35.02119115 -20.13406411 32.98398802 -20.125 29.875 C-20.12757813 28.98554688 -20.13015625 28.09609375 -20.1328125 27.1796875 C-20 25 -20 25 -19 24 C-18.78889481 21.51658199 -18.62405205 19.05043287 -18.5 16.5625 C-18.13428793 9.26857585 -18.13428793 9.26857585 -17 7 C-12.40777606 5.94025601 -9.12455572 5.52526657 -5 8 C-2.98416103 11.13187439 -2.7781631 13.57019787 -2.875 17.25 C-2.89304687 18.14203125 -2.91109375 19.0340625 -2.9296875 19.953125 C-2.95289063 20.62859375 -2.97609375 21.3040625 -3 22 C-2.01 22 -1.02 22 0 22 C0 14.74 0 7.48 0 0 Z M-13 11 C-14.25949049 12.03406673 -14.25949049 12.03406673 -14.09765625 14.28515625 C-14.08605469 15.20167969 -14.07445312 16.11820312 -14.0625 17.0625 C-14.05347656 17.98160156 -14.04445312 18.90070313 -14.03515625 19.84765625 C-14.02355469 20.55792969 -14.01195312 21.26820313 -14 22 C-12.02 22 -10.04 22 -8 22 C-7.95875 20.741875 -7.9175 19.48375 -7.875 18.1875 C-7.84019531 17.12595703 -7.84019531 17.12595703 -7.8046875 16.04296875 C-7.86745538 13.68640281 -7.86745538 13.68640281 -10 11 C-10.99 11 -11.98 11 -13 11 Z M13 11 C12.30840599 12.84725052 12.30840599 12.84725052 12 15 C12.99 16.485 12.99 16.485 14 18 C14.99 17.67 15.98 17.34 17 17 C17.33 15.35 17.66 13.7 18 12 C16.35 11.67 14.7 11.34 13 11 Z " fill="#FFFFFF" transform="translate(267,276)"/>
<path d="M0 0 C1.65 0 3.3 0 5 0 C5 69.96 5 139.92 5 212 C3.35 212 1.7 212 0 212 C0 142.04 0 72.08 0 0 Z " fill="#FFFFFF" transform="translate(181,34)"/>
<path d="M0 0 C4.24317025 3.4154471 6.91792913 7.68184807 9.6875 12.3125 C10.3475 13.3025 11.0075 14.2925 11.6875 15.3125 C12.64283171 20.28387582 12.87013084 25.20068353 12.875 30.25 C12.88724609 30.91451172 12.89949219 31.57902344 12.91210938 32.26367188 C12.93561444 40.34158017 10.79511712 46.81320592 6.875 53.8125 C6.51825195 54.46033447 6.16150391 55.10816895 5.79394531 55.77563477 C5.0876267 57.05004448 4.37638148 58.32173917 3.65966797 59.59033203 C2.82320734 61.07209829 2.00545596 62.56439808 1.19140625 64.05859375 C-0.0625 66.25 -0.0625 66.25 -2.3125 69.3125 C-3.6325 69.3125 -4.9525 69.3125 -6.3125 69.3125 C-6.99398095 62.77028286 -4.98282448 59.59187791 -1.3125 54.3125 C4.1695209 45.34192035 9.09028634 35.69023425 7 24.9375 C6.58443242 23.38977717 6.14588408 21.84808666 5.6875 20.3125 C5.47609375 19.48363281 5.2646875 18.65476562 5.046875 17.80078125 C2.59901017 9.96521393 -2.44112206 6.43532676 -9.3125 2.3125 C-9.96734375 1.91804688 -10.6221875 1.52359375 -11.296875 1.1171875 C-16.29954741 -0.88000342 -22.79185476 -0.59619656 -27.8046875 1.2109375 C-29.67675586 2.17782995 -31.49985105 3.23833766 -33.3125 4.3125 C-33.9725 4.3125 -34.6325 4.3125 -35.3125 4.3125 C-35.580625 4.910625 -35.84875 5.50875 -36.125 6.125 C-37.3125 8.3125 -37.3125 8.3125 -38.6875 9.6171875 C-43.95497873 15.11258598 -46.73206934 22.5607837 -47.1875 30.0625 C-46.79756514 38.88477619 -42.65942563 45.84820205 -38.3125 53.3125 C-37.11881336 55.37142562 -35.93047636 57.43347198 -34.75 59.5 C-34.25371094 60.31855469 -33.75742187 61.13710937 -33.24609375 61.98046875 C-32.10289331 64.83607821 -32.45079981 66.4074868 -33.3125 69.3125 C-37.71032537 68.18783566 -39.43858809 66.19969384 -41.75 62.3605957 C-42.306875 61.37772583 -42.306875 61.37772583 -42.875 60.375 C-43.46087891 59.3698938 -43.46087891 59.3698938 -44.05859375 58.34448242 C-47.15801601 52.89254146 -49.56764697 47.34678341 -51.3125 41.3125 C-51.50199219 40.68601563 -51.69148438 40.05953125 -51.88671875 39.4140625 C-54.07235752 28.62623077 -52.2386584 17.24836603 -46.83984375 7.7109375 C-35.50535189 -8.31276494 -15.79202776 -10.81934727 0 0 Z " fill="#FFFFFF" transform="translate(97.3125,57.6875)"/>
<path d="M0 0 C2.64 0 5.28 0 8 0 C8 1.98 8 3.96 8 6 C8.99 6 9.98 6 11 6 C11 10.95 11 15.9 11 21 C12.65 20.67 14.3 20.34 16 20 C15.505 19.13375 15.01 18.2675 14.5 17.375 C12.9522239 13.89250377 12.73197104 11.75240542 13 8 C18.33493949 5.04875688 21.29557926 4.80357689 27.1796875 6.359375 C29 7 29 7 30 8 C29.94921875 9.9609375 29.94921875 9.9609375 29.6875 12.375 C29.60886719 13.16648437 29.53023438 13.95796875 29.44921875 14.7734375 C29 17 29 17 27 20 C28.65 20.33 30.3 20.66 32 21 C32 16.05 32 11.1 32 6 C40.02532512 4.68240931 40.02532512 4.68240931 43.78125 5.90625 C46.3521262 8.3322881 46.34889602 8.84596481 46.48828125 12.23046875 C46.45508749 13.88351783 46.39551184 15.53620289 46.3125 17.1875 C46.28994141 18.03248047 46.26738281 18.87746094 46.24414062 19.74804688 C46.18524963 21.83278798 46.09556798 23.91661804 46 26 C42.3958502 26.02900455 38.79173038 26.04680018 35.1875 26.0625 C33.65125977 26.07506836 33.65125977 26.07506836 32.08398438 26.08789062 C30.60961914 26.09272461 30.60961914 26.09272461 29.10546875 26.09765625 C28.19949951 26.10289307 27.29353027 26.10812988 26.36010742 26.11352539 C24 26 24 26 21 25 C20.01 25.33 19.02 25.66 18 26 C15.17243085 26.17404815 12.39141795 26.27687131 9.5625 26.3125 C8.79873047 26.34150391 8.03496094 26.37050781 7.24804688 26.40039062 C3.62749193 26.44135426 1.59008879 26.37809732 -1.51171875 24.390625 C-3.47079935 21.24375537 -3.46726172 19.12377491 -3.375 15.4375 C-3.36210937 14.30183594 -3.34921875 13.16617187 -3.3359375 11.99609375 C-3 9 -3 9 -1 6 C-0.60986284 4.0103005 -0.26797351 2.00980131 0 0 Z M2 10 C0.50702788 12.98594424 0.88244772 15.70853624 1 19 C1.33 19.66 1.66 20.32 2 21 C3.65 21 5.3 21 7 21 C7 17.37 7 13.74 7 10 C5.35 10 3.7 10 2 10 Z M19 10 C18.13641377 11.78141747 18.13641377 11.78141747 18 14 C19.85432087 16.27144074 19.85432087 16.27144074 22 18 C23.42944945 15.64561267 24.08661261 14.51967567 23.625 11.75 C23.41875 11.1725 23.2125 10.595 23 10 C21.68 10 20.36 10 19 10 Z M37 10 C37 13.63 37 17.26 37 21 C38.65 21 40.3 21 42 21 C42.05399736 19.54207116 42.09279177 18.08357288 42.125 16.625 C42.15980469 15.40683594 42.15980469 15.40683594 42.1953125 14.1640625 C42.21370051 11.78657757 42.21370051 11.78657757 40 10 C39.01 10 38.02 10 37 10 Z " fill="#FFFFFF" transform="translate(424,277)"/>
<path d="M0 0 C4.29 0 8.58 0 13 0 C13 1.65 13 3.3 13 5 C10.36 5 7.72 5 5 5 C5 6.32 5 7.64 5 9 C7.31 9 9.62 9 12 9 C12 10.65 12 12.3 12 14 C9.69 14 7.38 14 5 14 C5 15.98 5 17.96 5 20 C7.64 20 10.28 20 13 20 C15.64031672 13.46207289 17.38808348 6.85921925 19 0 C20.98 0 22.96 0 25 0 C25.34933594 1.12019531 25.69867188 2.24039062 26.05859375 3.39453125 C26.51821405 4.86719222 26.9778503 6.33984821 27.4375 7.8125 C27.66759766 8.55048828 27.89769531 9.28847656 28.13476562 10.04882812 C29.0687184 13.04018411 30.00899104 16.02697312 31 19 C31.33 12.73 31.66 6.46 32 0 C40.30078125 -0.390625 40.30078125 -0.390625 43 0 C45.67791656 2.61524192 45.9785509 3.75548029 46.3125 7.5625 C46 11 46 11 44 14 C44.36334776 17.41546894 45.10787087 20.68637751 46 24 C44.35 24 42.7 24 41 24 C40.01 21.36 39.02 18.72 38 16 C37.67 18.64 37.34 21.28 37 24 C33.37 24 29.74 24 26 24 C25.505 21.525 25.505 21.525 25 19 C23.02 19 21.04 19 19 19 C18.67 20.65 18.34 22.3 18 24 C12.06 24 6.12 24 0 24 C0 16.08 0 8.16 0 0 Z M37 5 C37 6.98 37 8.96 37 11 C38.32 10.67 39.64 10.34 41 10 C40.67 8.35 40.34 6.7 40 5 C39.01 5 38.02 5 37 5 Z M21 10 C21 11.32 21 12.64 21 14 C21.66 14 22.32 14 23 14 C22.67 12.68 22.34 11.36 22 10 C21.67 10 21.34 10 21 10 Z " fill="#FFFFFF" transform="translate(257,327)"/>
<path d="M0 0 C1.98 0 3.96 0 6 0 C6.99 1.98 7.98 3.96 9 6 C9.99 4.02 10.98 2.04 12 0 C14.79192205 -0.05380578 17.5828141 -0.09357669 20.375 -0.125 C21.1690625 -0.14175781 21.963125 -0.15851563 22.78125 -0.17578125 C24.85492015 -0.19335473 26.92883241 -0.10335168 29 0 C29.66 0.66 30.32 1.32 31 2 C31.33 1.34 31.66 0.68 32 0 C36.62 0 41.24 0 46 0 C46 1.65 46 3.3 46 5 C44.68 5 43.36 5 42 5 C42 11.27 42 17.54 42 24 C40.35 24 38.7 24 37 24 C37 17.73 37 11.46 37 5 C35.35 5 33.7 5 32 5 C32.04125 6.093125 32.0825 7.18625 32.125 8.3125 C32 12 32 12 30 15 C28.0546875 15.29296875 28.0546875 15.29296875 25.875 15.1875 C24.59625 15.125625 23.3175 15.06375 22 15 C22 17.97 22 20.94 22 24 C20.35 24 18.7 24 17 24 C16.505 14.595 16.505 14.595 16 5 C13.41251617 12.35452315 13.41251617 12.35452315 12.3125 19.5625 C12.24675781 20.40941406 12.18101562 21.25632812 12.11328125 22.12890625 C12.07589844 22.74636719 12.03851563 23.36382812 12 24 C10.02 24 8.04 24 6 24 C5.96132812 23.10861328 5.96132812 23.10861328 5.921875 22.19921875 C5.44618162 15.24760867 3.57200963 9.44074077 1 3 C0.67 2.01 0.34 1.02 0 0 Z M22 5 C22 6.98 22 8.96 22 11 C23.65 10.67 25.3 10.34 27 10 C26.67 8.35 26.34 6.7 26 5 C24.68 5 23.36 5 22 5 Z " fill="#FFFFFF" transform="translate(120,327)"/>
<path d="M0 0 C1.65 0 3.3 0 5 0 C5 7.26 5 14.52 5 22 C8.63 22 12.26 22 16 22 C15.67 18.37 15.34 14.74 15 11 C12.36 11.33 9.72 11.66 7 12 C7.33 10.35 7.66 8.7 8 7 C15.32965009 5.65623082 15.32965009 5.65623082 18.4375 7.25 C21.19390148 10.33716965 21.11378649 13.23844026 21.0625 17.1875 C21.05347656 18.08855469 21.04445313 18.98960937 21.03515625 19.91796875 C21.02355469 20.60503906 21.01195312 21.29210937 21 22 C21.66 22 22.32 22 23 22 C23 14.74 23 7.48 23 0 C24.65 0 26.3 0 28 0 C28 8.91 28 17.82 28 27 C24.04 27 20.08 27 16 27 C16 28.65 16 30.3 16 32 C14.35 32 12.7 32 11 32 C11 30.35 11 28.7 11 27 C7.37 27 3.74 27 0 27 C0 18.09 0 9.18 0 0 Z " fill="#FFFFFF" transform="translate(472,276)"/>
<path d="M0 0 C1.65 0 3.3 0 5 0 C6.32 4.62 7.64 9.24 9 14 C10.32 9.38 11.64 4.76 13 0 C18.94 0 24.88 0 31 0 C31 1.65 31 3.3 31 5 C28.36 5 25.72 5 23 5 C23 6.32 23 7.64 23 9 C25.31 9 27.62 9 30 9 C30 10.65 30 12.3 30 14 C27.69 14 25.38 14 23 14 C23 15.98 23 17.96 23 20 C25.64 20 28.28 20 31 20 C31 21.32 31 22.64 31 24 C27.04 24 23.08 24 19 24 C18.505 14.595 18.505 14.595 18 5 C16.3974387 10.50402952 16.3974387 10.50402952 14.79907227 16.00927734 C14.59854248 16.6945752 14.3980127 17.37987305 14.19140625 18.0859375 C13.98717041 18.7876709 13.78293457 19.4894043 13.57250977 20.21240234 C13 22 13 22 12 24 C10.35 24 8.7 24 7 24 C0 6.15 0 6.15 0 0 Z " fill="#FFFFFF" transform="translate(413,327)"/>
<path d="M0 0 C1.32 0 2.64 0 4 0 C4 8.58 4 17.16 4 26 C1.03 26 -1.94 26 -5 26 C-5.33 27.98 -5.66 29.96 -6 32 C-7.98 32.66 -9.96 33.32 -12 34 C-12 35.65 -12 37.3 -12 39 C-14.64 39 -17.28 39 -20 39 C-20 37.35 -20 35.7 -20 34 C-20.94875 33.71125 -21.8975 33.4225 -22.875 33.125 C-26 32 -26 32 -28 30 C-28.1953125 26.9609375 -28.1953125 26.9609375 -28.125 23.375 C-28.10695313 22.18648438 -28.08890625 20.99796875 -28.0703125 19.7734375 C-28.04710938 18.85820312 -28.02390625 17.94296875 -28 17 C-24.25 15.875 -24.25 15.875 -22 17 C-22.01160156 17.71027344 -22.02320313 18.42054688 -22.03515625 19.15234375 C-22.04417969 20.07144531 -22.05320313 20.99054688 -22.0625 21.9375 C-22.07410156 22.85402344 -22.08570313 23.77054687 -22.09765625 24.71484375 C-22.25949049 26.96593327 -22.25949049 26.96593327 -21 28 C-19.31391034 28.07205511 -17.62499341 28.08386068 -15.9375 28.0625 C-15.01839844 28.05347656 -14.09929687 28.04445313 -13.15234375 28.03515625 C-12.44207031 28.02355469 -11.73179687 28.01195312 -11 28 C-10.77390663 25.87635519 -10.77390663 25.87635519 -12.5 24.375 C-13.2425 23.694375 -13.2425 23.694375 -14 23 C-13.67 22.34 -13.34 21.68 -13 21 C-8.71 21 -4.42 21 0 21 C0 14.07 0 7.14 0 0 Z " fill="#FFFFFF" transform="translate(153,277)"/>
<path d="M0 0 C6.93 0 13.86 0 21 0 C21.33 1.98 21.66 3.96 22 6 C24.10232344 3.1315587 24.10232344 3.1315587 25 0 C26.98 0 28.96 0 31 0 C30.60573407 3.84409278 29.66700174 6.86977902 28 10.3125 C25.83721624 14.92016976 25.32133658 18.9389488 25 24 C23.68 24 22.36 24 21 24 C20.938125 22.72125 20.87625 21.4425 20.8125 20.125 C20.21438219 14.42475605 17.78983506 9.93111068 15 5 C13.68 5 12.36 5 11 5 C11 11.27 11 17.54 11 24 C9.02 24 7.04 24 5 24 C5 17.73 5 11.46 5 5 C3.35 5 1.7 5 0 5 C0 3.35 0 1.7 0 0 Z " fill="#FFFFFF" transform="translate(482,327)"/>
<path d="M0 0 C1.98 0 3.96 0 6 0 C7.32 2.97 8.64 5.94 10 9 C10.33 6.03 10.66 3.06 11 0 C12.98 0 14.96 0 17 0 C17 7.92 17 15.84 17 24 C15.02 24 13.04 24 11 24 C8.59417489 20.99271862 7.33520648 17.59478667 6 14 C5.67 17.3 5.34 20.6 5 24 C3.35 24 1.7 24 0 24 C0 16.08 0 8.16 0 0 Z " fill="#FFFFFF" transform="translate(329,327)"/>
<path d="M0 0 C1.98 0 3.96 0 6 0 C7.65 3.3 9.3 6.6 11 10 C11.33 6.7 11.66 3.4 12 0 C13.65 0 15.3 0 17 0 C17 7.92 17 15.84 17 24 C15.02 24 13.04 24 11 24 C9.68 21.03 8.36 18.06 7 15 C6.67 17.97 6.34 20.94 6 24 C4.02 24 2.04 24 0 24 C0 16.08 0 8.16 0 0 Z " fill="#FFFFFF" transform="translate(304,327)"/>
<path d="M0 0 C2.4375 2.3125 2.4375 2.3125 4 5 C4.4125 5.66 4.825 6.32 5.25 7 C6.16040138 9.42773701 6.14287008 11.42833863 6 14 C4.35 14.33 2.7 14.66 1 15 C0.566875 13.88625 0.13375 12.7725 -0.3125 11.625 C-1.69911119 7.82487666 -1.69911119 7.82487666 -5 6 C-8.65337175 6.07611191 -10.36577437 6.34531548 -12.9375 9 C-14.42221141 13.19212634 -13.77940841 16.68977757 -13 21 C-10.69 21.66 -8.38 22.32 -6 23 C-6 24.65 -6 26.3 -6 28 C-9.50290139 29.1676338 -10.99362782 28.59991071 -14.28515625 27.08984375 C-18.00627928 24.72493868 -19.65037014 21.04888957 -21 17 C-21.48537627 10.56876448 -20.17011787 6.6764787 -16.125 1.6875 C-11.52341746 -1.9666979 -5.47235889 -1.50643587 0 0 Z " fill="#FFFFFF" transform="translate(85,72)"/>
<path d="M0 0 C1.65 0 3.3 0 5 0 C6.80078125 2.1875 6.80078125 2.1875 8.3125 5 C8.82425781 5.928125 9.33601563 6.85625 9.86328125 7.8125 C10.23839844 8.534375 10.61351562 9.25625 11 10 C11.33 6.7 11.66 3.4 12 0 C13.65 0 15.3 0 17 0 C17 7.92 17 15.84 17 24 C15.02 24 13.04 24 11 24 C10.72285156 23.37351562 10.44570313 22.74703125 10.16015625 22.1015625 C9.61681641 20.87566406 9.61681641 20.87566406 9.0625 19.625 C8.70285156 18.81289063 8.34320313 18.00078125 7.97265625 17.1640625 C7.3430097 15.76316215 6.68687358 14.37374716 6 13 C5.67 16.63 5.34 20.26 5 24 C3.35 24 1.7 24 0 24 C0 16.08 0 8.16 0 0 Z " fill="#FFFFFF" transform="translate(389,327)"/>
<path d="M0 0 C1.65 0 3.3 0 5 0 C6.65 2.97 8.3 5.94 10 9 C10.33 6.03 10.66 3.06 11 0 C12.65 0 14.3 0 16 0 C16 7.92 16 15.84 16 24 C14.35 24 12.7 24 11 24 C9.19921875 21.8125 9.19921875 21.8125 7.6875 19 C7.17574219 18.071875 6.66398438 17.14375 6.13671875 16.1875 C5.76160156 15.465625 5.38648438 14.74375 5 14 C4.67 17.3 4.34 20.6 4 24 C2.68 24 1.36 24 0 24 C0 16.08 0 8.16 0 0 Z " fill="#FFFFFF" transform="translate(192,327)"/>
<path d="M0 0 C2.65351279 1.62634655 2.91506162 2.66796815 3.6875 5.6875 C3.790625 6.450625 3.89375 7.21375 4 8 C2.35 8 0.7 8 -1 8 C-1 7.34 -1 6.68 -1 6 C-3.31 6 -5.62 6 -8 6 C-7.67 9.96 -7.34 13.92 -7 18 C-6.01 18.33 -5.02 18.66 -4 19 C-3.01 18.01 -2.02 17.02 -1 16 C-2.32 15.67 -3.64 15.34 -5 15 C-5 13.35 -5 11.7 -5 10 C-2.03 10 0.94 10 4 10 C4 14.62 4 19.24 4 24 C-7.13338997 24.61172472 -7.13338997 24.61172472 -11.1875 21.75 C-14.22816664 17.13657476 -14.38153302 13.5322288 -14 8 C-11.11815947 0.72678342 -7.45160521 -0.99562157 0 0 Z " fill="#FFFFFF" transform="translate(117,327)"/>
<path d="M0 0 C2.0625 1.75 2.0625 1.75 3 4 C3 5.32 3 6.64 3 8 C0.57498366 7.52846905 -1.81107261 7.05397926 -4.1875 6.375 C-6.08903493 5.78653641 -6.08903493 5.78653641 -8 7 C-9.15021476 13.05321028 -9.15021476 13.05321028 -8 19 C-6.02 19 -4.04 19 -2 19 C-1.67 17.68 -1.34 16.36 -1 15 C-2.32 15 -3.64 15 -5 15 C-5 13.35 -5 11.7 -5 10 C-2.03 10 0.94 10 4 10 C4 14.62 4 19.24 4 24 C-7.78654456 24.59528003 -7.78654456 24.59528003 -12.3125 22.375 C-15.11785305 16.76429391 -14.88504408 11.12947883 -14 5 C-10.77107896 -0.62457214 -6.04723312 -1.27003547 0 0 Z " fill="#FFFFFF" transform="translate(361,327)"/>
<path d="M0 0 C6.65925596 0.72668088 10.48697913 5.4177846 15 10 C17.25 12.9375 17.25 12.9375 19 16 C19.48082031 16.75023438 19.96164063 17.50046875 20.45703125 18.2734375 C24.61425662 24.84812482 28 31.09492998 28 39 C25.525 39.495 25.525 39.495 23 40 C19.74031891 30.58997722 19.74031891 30.58997722 19 26 C18.34 26 17.68 26 17 26 C15.73828125 24.05859375 15.73828125 24.05859375 14.3125 21.4375 C10.33935603 14.58624931 5.28856661 9.76406562 -1 5 C-0.67 3.35 -0.34 1.7 0 0 Z " fill="#FFFFFF" transform="translate(103,32)"/>
<path d="M0 0 C1.65 0 3.3 0 5 0 C5 2.97 5 5.94 5 9 C6.98 9 8.96 9 11 9 C11 6.03 11 3.06 11 0 C12.65 0 14.3 0 16 0 C16 7.92 16 15.84 16 24 C14.35 24 12.7 24 11 24 C11 20.7 11 17.4 11 14 C9.02 14 7.04 14 5 14 C5 17.3 5 20.6 5 24 C3.35 24 1.7 24 0 24 C0 16.08 0 8.16 0 0 Z " fill="#FFFFFF" transform="translate(51,327)"/>
<path d="M0 0 C1.98 0 3.96 0 6 0 C6.8454215 2.68421327 7.67647233 5.37156768 8.5 8.0625 C8.73847656 8.81466797 8.97695312 9.56683594 9.22265625 10.34179688 C10.65796817 15.07832621 11.26283232 19.05218166 11 24 C9.35 23.67 7.7 23.34 6 23 C6 21.68 6 20.36 6 19 C4.02 19 2.04 19 0 19 C-0.33 20.65 -0.66 22.3 -1 24 C-2.65 24 -4.3 24 -6 24 C-5.36145015 18.47324097 -4.06306646 13.37632649 -2.4375 8.0625 C-2.20353516 7.28326172 -1.96957031 6.50402344 -1.72851562 5.70117188 C-1.15682579 3.79942813 -0.57904309 1.89951774 0 0 Z M2 9 C1.67 10.65 1.34 12.3 1 14 C1.99 13.67 2.98 13.34 4 13 C3.34 11.68 2.68 10.36 2 9 Z " fill="#FFFFFF" transform="translate(179,327)"/>
<path d="M0 0 C3.3 0 6.6 0 10 0 C13 3 13 3 13.36328125 5.15625 C13.34652344 5.9296875 13.32976562 6.703125 13.3125 7.5 C13.30863281 8.2734375 13.30476563 9.046875 13.30078125 9.84375 C13 12 13 12 11 15 C11.41156563 17.3250709 11.41156563 17.3250709 12.375 19.6875 C12.67148437 20.49574219 12.96796875 21.30398438 13.2734375 22.13671875 C13.51320313 22.75160156 13.75296875 23.36648438 14 24 C12.02 24 10.04 24 8 24 C6.50178941 20.62902617 6 18.79557881 6 15 C5.34 15 4.68 15 4 15 C4 17.97 4 20.94 4 24 C2.68 24 1.36 24 0 24 C0 16.08 0 8.16 0 0 Z M4 5 C4 6.98 4 8.96 4 11 C5.32 10.67 6.64 10.34 8 10 C8.33 8.68 8.66 7.36 9 6 C7.35 5.67 5.7 5.34 4 5 Z " fill="#FFFFFF" transform="translate(447,327)"/>
<path d="M0 0 C2.98779798 0.07591501 3.74701488 0.09895052 6.0625 2.125 C7.0625 4.375 7.0625 4.375 7.0625 8.375 C4.4225 7.715 1.7825 7.055 -0.9375 6.375 C-1.2675 7.035 -1.5975 7.695 -1.9375 8.375 C-1.009375 8.643125 -0.08125 8.91125 0.875 9.1875 C5.60795455 10.95075758 5.60795455 10.95075758 7.0625 13.375 C7.60114168 16.95098226 7.7188999 20.13942371 6 23.375 C2.88340489 24.98356522 0.49987531 24.79713381 -2.9375 24.375 C-5.375 22.625 -5.375 22.625 -6.9375 20.375 C-6.9375 19.055 -6.9375 17.735 -6.9375 16.375 C-5.2875 16.705 -3.6375 17.035 -1.9375 17.375 C-1.9375 18.035 -1.9375 18.695 -1.9375 19.375 C-0.9475 19.375 0.0425 19.375 1.0625 19.375 C1.3925 18.055 1.7225 16.735 2.0625 15.375 C1.134375 15.1275 0.20625 14.88 -0.75 14.625 C-4.19278099 13.27488981 -5.40428117 12.71200568 -6.9375 9.375 C-6.6274447 3.38059754 -6.43322862 0.61268844 0 0 Z " fill="#FFFFFF" transform="translate(467.9375,326.625)"/>
<path d="M0 0 C1.32 0 2.64 0 4 0 C4.33 6.27 4.66 12.54 5 19 C6.32 18.67 7.64 18.34 9 18 C9.495 9.09 9.495 9.09 10 0 C11.65 0 13.3 0 15 0 C15.10852923 2.87602455 15.1875515 5.74790832 15.25 8.625 C15.30027344 9.83736328 15.30027344 9.83736328 15.3515625 11.07421875 C15.43986346 16.50472792 14.82176971 19.81139375 11 24 C7.98021388 25.07808103 6.28415637 24.52129466 3 24 C0.94828255 21.93233732 0.08961228 20.60255427 -0.34057617 17.70996094 C-0.32486572 16.89301758 -0.30915527 16.07607422 -0.29296875 15.234375 C-0.28330078 14.34492188 -0.27363281 13.45546875 -0.26367188 12.5390625 C-0.23853516 11.61867188 -0.21339844 10.69828125 -0.1875 9.75 C-0.16719727 8.34621094 -0.16719727 8.34621094 -0.14648438 6.9140625 C-0.11119954 4.60878673 -0.06190281 2.3046894 0 0 Z " fill="#FFFFFF" transform="translate(373,327)"/>
<path d="M0 0 C4.29 0 8.58 0 13 0 C13 1.65 13 3.3 13 5 C10.36 5 7.72 5 5 5 C5 6.32 5 7.64 5 9 C7.31 9 9.62 9 12 9 C12 10.65 12 12.3 12 14 C9.69 14 7.38 14 5 14 C5 15.98 5 17.96 5 20 C7.64 20 10.28 20 13 20 C13 21.32 13 22.64 13 24 C8.71 24 4.42 24 0 24 C0 16.08 0 8.16 0 0 Z " fill="#FFFFFF" transform="translate(89,327)"/>
<path d="M0 0 C4.29 0 8.58 0 13 0 C13 1.65 13 3.3 13 5 C10.03 5 7.06 5 4 5 C4 6.32 4 7.64 4 9 C6.64 9 9.28 9 12 9 C12 10.65 12 12.3 12 14 C9.36 14 6.72 14 4 14 C4 15.98 4 17.96 4 20 C6.97 20 9.94 20 13 20 C13 21.32 13 22.64 13 24 C8.71 24 4.42 24 0 24 C0 16.08 0 8.16 0 0 Z " fill="#FFFFFF" transform="translate(69,327)"/>
<path d="M0 0 C3.96 0 7.92 0 12 0 C12 1.65 12 3.3 12 5 C9.36 5 6.72 5 4 5 C4 6.32 4 7.64 4 9 C6.64 9 9.28 9 12 9 C12 10.65 12 12.3 12 14 C9.36 14 6.72 14 4 14 C4 15.98 4 17.96 4 20 C6.64 20 9.28 20 12 20 C12 21.32 12 22.64 12 24 C8.04 24 4.08 24 0 24 C0 16.08 0 8.16 0 0 Z " fill="#FFFFFF" transform="translate(216,327)"/>
<path d="M0 0 C4.62 0 9.24 0 14 0 C14 1.65 14 3.3 14 5 C12.68 5 11.36 5 10 5 C10 11.27 10 17.54 10 24 C8.02 24 6.04 24 4 24 C4 17.73 4 11.46 4 5 C2.68 5 1.36 5 0 5 C0 3.35 0 1.7 0 0 Z " fill="#FFFFFF" transform="translate(36,327)"/>
<path d="M0 0 C3.60295454 -0.52984626 4.87765282 -0.08330021 7.9375 2 C13.86889448 7.44220731 18.64613361 13.90722563 20 22 C19.56640625 24.265625 19.56640625 24.265625 19 26 C16.6796875 25.88671875 16.6796875 25.88671875 14 25 C12.4453125 22.26953125 12.4453125 22.26953125 11.125 18.8125 C8.90064816 13.52027589 7.01154373 10.60899865 2.4140625 7.27734375 C1 6 1 6 0.0625 2.625 C0.0315625 1.325625 0.0315625 1.325625 0 0 Z " fill="#FFFFFF" transform="translate(99,45)"/>
<path d="M0 0 C1.65 0 3.3 0 5 0 C5 6.6 5 13.2 5 20 C7.64 20 10.28 20 13 20 C13 21.32 13 22.64 13 24 C8.71 24 4.42 24 0 24 C0 16.08 0 8.16 0 0 Z " fill="#FFFFFF" transform="translate(243,327)"/>
<path d="M0 0 C1.65 0 3.3 0 5 0 C5 8.91 5 17.82 5 27 C3.35 27 1.7 27 0 27 C0 18.09 0 9.18 0 0 Z " fill="#FFFFFF" transform="translate(235,276)"/>
<path d="M0 0 C1.65 0 3.3 0 5 0 C5 8.58 5 17.16 5 26 C3.35 26.33 1.7 26.66 0 27 C0 18.09 0 9.18 0 0 Z " fill="#FFFFFF" transform="translate(114,276)"/>
<path d="M0 0 C1.32 0 2.64 0 4 0 C4 8.91 4 17.82 4 27 C2.68 27 1.36 27 0 27 C0 18.09 0 9.18 0 0 Z " fill="#FFFFFF" transform="translate(503,276)"/>
<path d="M0 0 C1.32 0 2.64 0 4 0 C4 8.91 4 17.82 4 27 C2.68 27 1.36 27 0 27 C0 18.09 0 9.18 0 0 Z " fill="#FFFFFF" transform="translate(409,276)"/>
<path d="M0 0 C1.32 0 2.64 0 4 0 C4 7.92 4 15.84 4 24 C2.68 24 1.36 24 0 24 C0 16.08 0 8.16 0 0 Z " fill="#FFFFFF" transform="translate(477,327)"/>
<path d="M0 0 C1.32 0 2.64 0 4 0 C4 7.92 4 15.84 4 24 C2.68 24 1.36 24 0 24 C0 16.08 0 8.16 0 0 Z " fill="#FFFFFF" transform="translate(408,327)"/>
<path d="M0 0 C1.32 0 2.64 0 4 0 C4 7.92 4 15.84 4 24 C2.68 24 1.36 24 0 24 C0 16.08 0 8.16 0 0 Z " fill="#FFFFFF" transform="translate(323,327)"/>
<path d="M0 0 C1.32 0 2.64 0 4 0 C4 7.92 4 15.84 4 24 C2.68 24 1.36 24 0 24 C0 16.08 0 8.16 0 0 Z " fill="#FFFFFF" transform="translate(168,327)"/>
<path d="M0 0 C3.96 0 7.92 0 12 0 C12 1.32 12 2.64 12 4 C8.04 4 4.08 4 0 4 C0 2.68 0 1.36 0 0 Z " fill="#FFFFFF" transform="translate(230,339)"/>
</svg>
